<?xml version="1.0" encoding="utf-8"?>
<!-- Generator: Adobe Illustrator 22.1.0, SVG Export Plug-In . SVG Version: 6.00 Build 0)  -->
<svg version="1.1" id="Calque_1" xmlns="http://www.w3.org/2000/svg" xmlns:xlink="http://www.w3.org/1999/xlink" x="0px" y="0px"
	 viewBox="0 0 315.4 76.2" style="enable-background:new 0 0 315.4 76.2;" xml:space="preserve">
<style type="text/css">
	.st0{fill:#FFFFFF;}
	.st1{font-family:'Roboto-Bold';}
	.st2{font-size:24.3011px;}
</style>
<g>
	<g>
		<path class="st0" d="M13.8,0c15.5,0,30.9,0,46.4,0c0,0.1,0,0.2,0,0.3c0,24.1,0,48.3,0,72.4c0,0.1,0,0.1,0,0.2
			c-0.1-0.1-0.1-0.1-0.1-0.2c-1.4-4-2.8-8.1-4.2-12.1c-0.1-0.2-0.2-0.3-0.4-0.3c-18.4,0-36.8,0-55.3,0c-0.1,0-0.2,0-0.3,0
			c0-0.1,0-0.2,0-0.2c0-16.2,0-32.3,0-48.5c0-0.1,0-0.2,0-0.2c0.2-1.3,0.5-2.6,1-3.9C1.7,5.9,2.6,4.4,4,3.2C5.2,2.2,6.6,1.5,8.1,1
			c1.6-0.5,3.3-0.8,5-1C13.3,0.1,13.6,0,13.8,0z M43.9,54.5c0-6.4,0-12.8,0-19.1c-1.8,0-3.5,0-5.3,0c0,1.9,0,3.7,0,5.6
			c0,0-0.1-0.1-0.1-0.2c-0.2-0.4-0.4-0.9-0.6-1.3c-1-1.9-2.5-3.3-4.5-4.1c-1.8-0.7-3.6-0.8-5.4-0.4c-3.4,0.6-5.7,2.5-7.1,5.7
			c0,0,0,0.1-0.1,0.2c0-0.2,0-0.4,0-0.7c0-1.9-0.9-3.3-2.6-4.2c-1.2-0.6-2.5-0.9-3.9-1c-1.2-0.1-2.4-0.1-3.6,0
			c-1.2,0.1-2.4,0.4-3.6,0.9c-1.9,0.9-3.2,2.3-3.7,4.4c-0.1,0.3-0.1,0.7-0.2,1.1c0.1,0,0.2,0,0.3,0c1.6,0,3.2,0,4.7,0
			c0.3,0,0.3,0,0.3-0.3c0,0,0-0.1,0-0.1c0.2-1.2,1-2.1,2.2-2.3c1-0.2,2-0.2,3,0c0.7,0.2,1.3,0.6,1.5,1.3c0.1,0.3,0.1,0.6,0.2,0.9
			c0.1,0.8-0.3,1.4-1,1.8c-0.6,0.3-1.3,0.4-2,0.5c-1.3,0.2-2.6,0.3-3.8,0.5c-1.1,0.2-2.1,0.4-3.1,0.9c-1.4,0.7-2.3,1.7-2.6,3.2
			c-0.2,1-0.2,2,0,3.1c0.2,0.9,0.6,1.7,1.2,2.4c0.9,1,2.1,1.6,3.5,1.8c1.3,0.2,2.6,0.2,3.9,0c1.5-0.3,2.9-0.9,4.1-1.9
			c0.1-0.1,0.1-0.1,0.2-0.1c0.1,0.5,0.2,1.1,0.4,1.6c0,0.2,0.1,0.2,0.2,0.2c1.7,0,3.3,0,5,0c0.1,0,0.1,0,0.2,0
			C21.1,53.7,21,52.8,21,52c-0.1-0.9-0.1-1.8-0.1-2.7c0,0,0,0,0.1,0c0,0.1,0,0.1,0.1,0.2c1.1,2.6,3.1,4.4,5.8,5.2
			c1.7,0.5,3.5,0.5,5.3,0.3c1.3-0.2,2.5-0.7,3.6-1.4c1.3-1,2.2-2.2,2.9-3.7c0-0.1,0.1-0.2,0.1-0.2c0,0,0,0,0,0c0,1.7,0,3.3,0,5
			C40.4,54.5,42.2,54.5,43.9,54.5z M46.1,35.4c0,6.4,0,12.8,0,19.1c1.8,0,3.5,0,5.3,0c0-0.1,0-0.2,0-0.3c0-2.9,0-5.8,0-8.7
			c0-0.9,0.1-1.8,0.4-2.6c0.5-1.4,1.3-2.4,2.7-2.8c1-0.3,1.9-0.4,2.9-0.3c0.3,0,0.6,0.1,0.9,0.1c0-0.1,0-0.2,0-0.2c0-1.5,0-3,0-4.5
			c0-0.2-0.1-0.3-0.2-0.3c-0.7-0.2-1.4-0.2-2.1,0c-2.2,0.5-3.9,1.7-4.9,3.8c0,0,0,0.1-0.1,0.2c0,0,0,0,0,0c0-1.2,0-2.3,0-3.5
			C49.4,35.4,47.8,35.4,46.1,35.4z M43.9,28.1c-1.8,0-3.5,0-5.3,0c0,1.5,0,2.9,0,4.3c1.8,0,3.5,0,5.3,0C43.9,31,43.9,29.5,43.9,28.1
			z"/>
		<path class="st0" d="M22.1,61.5c0.1,0,0.1,0,0.2,0c0.9,0,1.8,0,2.8,0c0.1,0,0.2,0,0.3,0.2c1.9,3.1,3.9,6.2,5.8,9.3
			c0,0.1,0.1,0.1,0.1,0.2c0-3.2,0-6.4,0-9.6c1,0,1.9,0,2.9,0c0,4.8,0,9.5,0,14.3c-0.1,0-0.1,0-0.2,0c-0.9,0-1.8,0-2.6,0
			c-0.2,0-0.3-0.1-0.5-0.2c-1.9-3.1-3.8-6.1-5.7-9.2c0-0.1-0.1-0.1-0.1-0.2c0,0,0,0,0,0c0,3.2,0,6.4,0,9.5c-1,0-1.9,0-2.9,0
			C22.1,71,22.1,66.3,22.1,61.5z"/>
		<path class="st0" d="M46.5,65.7c-1,0-2,0-3,0c0-0.1,0-0.2,0-0.3c-0.2-0.9-0.7-1.5-1.6-1.7c-0.7-0.2-1.5-0.2-2.2,0
			c-0.8,0.3-1.3,1-1.1,1.8c0.1,0.3,0.2,0.5,0.5,0.7c0.4,0.2,0.8,0.4,1.3,0.5c1.1,0.3,2.2,0.6,3.3,0.9c0.6,0.2,1.1,0.4,1.6,0.7
			c1.1,0.7,1.7,1.6,1.8,2.9c0.1,1.2-0.3,2.3-1.1,3.2c-0.6,0.7-1.5,1.1-2.4,1.3c-2,0.5-3.9,0.5-5.8-0.4c-1.4-0.6-2.3-1.7-2.6-3.3
			c-0.1-0.3-0.1-0.7-0.1-1.1c1,0,2,0,3.1,0c0,0.2,0,0.4,0.1,0.5c0.2,0.8,0.6,1.4,1.3,1.7c1.3,0.5,2.5,0.5,3.7,0
			c0.7-0.3,1-1.1,0.8-1.8c-0.1-0.4-0.4-0.6-0.7-0.8c-0.5-0.3-1.1-0.5-1.7-0.6c-1-0.3-2-0.5-3-0.8c-0.8-0.2-1.5-0.6-2.1-1.2
			c-0.7-0.6-1-1.5-1-2.4c-0.1-1.9,1-3.3,2.6-3.9c1.1-0.5,2.2-0.6,3.4-0.5c0.9,0.1,1.7,0.2,2.5,0.6c1.3,0.6,2.2,1.6,2.4,3
			c0,0.2,0.1,0.5,0.1,0.7C46.5,65.6,46.5,65.7,46.5,65.7z"/>
		<path class="st0" d="M60.1,75.8c-1.1,0-2.1,0-3.1,0c-0.1,0-0.1-0.1-0.2-0.1c-0.3-1-0.6-1.9-1-2.9c0-0.1-0.1-0.2-0.3-0.2
			c-1.7,0-3.3,0-5,0c-0.2,0-0.2,0-0.3,0.2c-0.3,1-0.7,1.9-1,2.8c0,0.1,0,0.1-0.1,0.2c-1.1,0-2.1,0-3.2,0c0.1-0.2,0.2-0.4,0.2-0.6
			c1.7-4.5,3.4-9,5.1-13.5c0.1-0.2,0.1-0.2,0.3-0.2c1,0,1.9,0,2.8,0c0.1,0,0.2,0,0.2,0.2c1.7,4.7,3.5,9.3,5.2,14
			C60.1,75.7,60.1,75.7,60.1,75.8z M53.2,65C53.1,65,53.1,65,53.2,65c-0.7,1.7-1.3,3.5-1.9,5.2c1.3,0,2.5,0,3.7,0
			C54.4,68.5,53.8,66.7,53.2,65z"/>
		<path class="st0" d="M20.4,75.8c-1,0-2.1,0-3.1,0c0-4.8,0-9.5,0-14.3c1,0,2.1,0,3.1,0C20.4,66.2,20.4,71,20.4,75.8z"/>
		<path class="st0" d="M25.5,46.3c4.4,0,8.8,0,13.2,0c0,0.8,0,1.5,0,2.3c-0.1,0-0.2,0-0.2,0c-1.3,0-2.6,0-3.9,0
			c-0.1,0-0.2,0-0.2,0.2c-0.2,0.6-0.7,1.1-1.2,1.4c-1.1,0.7-2.3,1-3.6,0.8c-0.5,0-1-0.2-1.5-0.3c-0.8-0.3-1.5-0.9-1.9-1.7
			C25.7,48.1,25.5,47.2,25.5,46.3z"/>
		<path class="st0" d="M15.6,45.2c0,1.2,0.1,2.3-0.2,3.5c-0.4,1.6-1.5,2.5-3.1,2.8c-0.8,0.1-1.6,0.1-2.4-0.1
			c-1.3-0.3-1.8-1.3-1.7-2.5c0.1-1,0.6-1.7,1.5-2.1c0.7-0.3,1.4-0.4,2.1-0.5c0.9-0.2,1.8-0.3,2.7-0.5C14.9,45.7,15.3,45.5,15.6,45.2
			z"/>
		<path class="st0" d="M34,42.9c-2.8,0-5.7,0-8.5,0c0-0.5,0.1-0.9,0.3-1.4c0.6-1.5,1.7-2.4,3.4-2.6c0.7-0.1,1.5-0.1,2.1,0.2
			c0.8,0.2,1.4,0.7,1.9,1.4C33.6,41.2,33.8,42,34,42.9z"/>
	</g>
	<text transform="matrix(1 0 0 1 72.4441 30.3699)"><tspan x="0" y="0" class="st0 st1 st2">amicale des élèves</tspan><tspan x="0" y="29.2" class="st0 st1 st2">insa rennes</tspan></text>
</g>
</svg>
