<?xml version="1.0" encoding="utf-8"?>
<!-- Generator: Adobe Illustrator 22.1.0, SVG Export Plug-In . SVG Version: 6.00 Build 0)  -->
<svg version="1.1" id="Calque_1" xmlns="http://www.w3.org/2000/svg" xmlns:xlink="http://www.w3.org/1999/xlink" x="0px" y="0px"
	 viewBox="0 0 399.1 530.4" style="enable-background:new 0 0 399.1 530.4;" xml:space="preserve">
<style type="text/css">
	.st0{fill:#FFFFFF;}
</style>
<g>
	<path class="st0" d="M91.7,0c102.4,0,204.8,0,307.2,0c0,0.6-0.1,1.3-0.1,1.9c0,159.7,0,319.4,0,479.2c0,0.5,0,0.9,0,1.4
		c-0.4-0.4-0.6-0.9-0.7-1.4c-9.2-26.7-18.5-53.3-27.7-80c-0.5-1.4-1-1.8-2.5-1.8c-121.9,0-243.8,0-365.8,0c-0.6,0-1.2,0-1.8,0
		c0-0.6,0-1,0-1.5c0-107,0-213.9,0-320.9c0-0.5,0-1,0.1-1.4c1-8.9,3.3-17.4,6.7-25.6C11.5,39,17.8,29.3,26.6,21.4
		c7.8-7.1,17.1-11.4,27-14.6c10.8-3.5,21.8-5.4,33.1-6.3C88.4,0.4,90,0.2,91.7,0z M290.9,360.9c0-42.3,0-84.5,0-126.7
		c-11.7,0-23.2,0-34.9,0c0,12.4,0,24.7,0,37c-0.3-0.3-0.4-0.7-0.6-1c-1.3-2.8-2.4-5.8-3.8-8.5c-6.7-12.6-16.4-21.8-29.9-26.9
		c-11.6-4.4-23.6-5.2-35.8-2.9c-22.2,4.2-37.7,16.8-46.7,37.4c-0.1,0.3-0.3,0.7-0.5,1c-0.2-1.5-0.2-2.9-0.2-4.4
		c-0.2-12.7-5.9-22-17.2-27.9c-8-4.2-16.8-5.8-25.7-6.7c-7.9-0.7-15.8-0.8-23.7,0c-8.2,0.8-16.1,2.4-23.6,5.8
		c-12.9,5.8-21.4,15.2-24.3,29.3c-0.4,2.2-0.7,4.5-1,7c0.8,0,1.2,0,1.7,0c10.5,0,21,0,31.4,0c1.9,0,1.9,0,2.2-1.9
		c0.1-0.3,0.1-0.6,0.2-0.9c1.3-8.1,6.3-13.6,14.3-15.4c6.5-1.4,13.1-1.3,19.6,0.3c4.8,1.1,8.5,3.8,10,8.7c0.6,1.9,0.9,3.9,1.1,5.9
		c0.5,5.4-1.9,9.2-6.7,11.6c-4.1,2-8.5,2.9-13,3.5c-8.5,1.2-17,2.2-25.4,3.4c-7.1,1-13.9,2.8-20.4,5.9c-9.1,4.4-15.2,11.3-17.5,21.2
		c-1.6,6.7-1.6,13.5-0.2,20.3c1.2,5.9,3.7,11.1,7.8,15.6c6.2,6.8,14.1,10.3,23,11.9c8.6,1.6,17.2,1.3,25.8-0.3
		c10.1-1.9,19.3-5.8,26.9-12.9c0.4-0.4,0.8-0.7,1-0.9c0.8,3.6,1.6,7.1,2.4,10.6c0.2,1,0.7,1.1,1.6,1.1c11,0,22,0,33,0
		c0.4,0,0.7,0,1.2-0.1c-2.8-5.5-3.5-11.3-3.9-17.2c-0.4-5.8-0.4-11.7-0.6-17.6c0.1,0,0.2,0,0.4,0c0.2,0.4,0.3,0.7,0.5,1.1
		c7.4,17.5,20.2,29,38.5,34.4c11.4,3.3,23.1,3.6,34.8,1.7c8.5-1.4,16.4-4.4,23.5-9.4c8.8-6.3,14.8-14.7,19.1-24.4
		c0.2-0.5,0.5-1.1,0.7-1.6c0.1,0,0.2,0,0.2,0.1c0,11,0,21.9,0,33C267.7,360.9,279.3,360.9,290.9,360.9z M305.3,234.3
		c0,42.3,0,84.5,0,126.7c11.6,0,23.2,0,34.9,0c0-0.6,0-1.2,0-1.8c0-19.2,0-38.5,0.1-57.7c0-5.9,0.9-11.7,2.9-17.3
		c3.2-9,8.9-15.6,18.1-18.8c6.4-2.2,12.9-2.4,19.5-1.7c2,0.2,4,0.5,6.2,0.8c0-0.5,0-1,0-1.5c0-9.8,0-19.7,0-29.5
		c0-1.3-0.5-1.7-1.6-2c-4.7-1.1-9.4-1-14,0c-14.7,3.3-25.7,11.4-32.2,25.1c-0.2,0.3-0.3,0.6-0.5,1c-0.1,0-0.2-0.1-0.3-0.1
		c0-7.8,0-15.5,0-23.3C327.3,234.3,316.4,234.3,305.3,234.3z M290.9,185.8c-11.7,0-23.2,0-34.8,0c0,9.6,0,19.1,0,28.7
		c11.6,0,23.2,0,34.8,0C290.9,204.9,290.9,195.4,290.9,185.8z"/>
	<path class="st0" d="M146.5,406.8c0.5,0,0.8,0,1.2,0c6.1,0,12.2,0,18.2,0c0.8,0,1.3,0.3,1.7,1c12.7,20.5,25.5,41,38.2,61.5
		c0.2,0.4,0.5,0.7,0.9,1c0-21.1,0-42.2,0-63.3c6.5,0,12.9,0,19.4,0c0,31.5,0,63,0,94.6c-0.4,0-0.9,0-1.3,0c-5.8,0-11.6-0.1-17.4,0
		c-1.4,0-2.2-0.4-3-1.6c-12.5-20.3-25.1-40.5-37.7-60.7c-0.2-0.4-0.5-0.7-0.7-1c-0.1,0-0.2,0.1-0.3,0.1c0,21,0,42.1,0,63.2
		c-6.5,0-12.9,0-19.4,0C146.5,470,146.5,438.5,146.5,406.8z"/>
	<path class="st0" d="M307.8,435.1c-6.8,0-13.3,0-20,0c-0.1-0.8-0.2-1.5-0.3-2.3c-1.1-6.1-4.7-9.7-10.6-11.1
		c-4.9-1.1-9.9-1.4-14.8,0.3c-5.6,1.9-8.4,6.5-7.2,12c0.4,2,1.6,3.6,3.4,4.4c2.8,1.3,5.6,2.5,8.6,3.3c7.2,2.1,14.5,3.8,21.7,5.8
		c3.8,1,7.5,2.6,10.8,4.8c7.1,4.5,11,10.9,11.6,19.2c0.5,8.2-1.8,15.5-7.6,21.5c-4.3,4.4-9.6,7.2-15.6,8.8
		c-13.1,3.3-26.1,3.2-38.6-2.6c-9.4-4.3-15.5-11.4-17.4-21.7c-0.4-2.3-0.5-4.7-0.8-7.1c6.9,0,13.5,0,20.2,0c0.1,1.2,0.2,2.4,0.4,3.6
		c1,5.2,3.9,9.1,8.8,11.2c8.3,3.5,16.7,3.6,24.8-0.3c4.8-2.2,6.8-7.3,5.2-12.1c-0.8-2.4-2.4-4-4.5-5.3c-3.4-2.2-7.3-3.3-11.1-4.3
		c-6.6-1.8-13.2-3.4-19.7-5.4c-5.2-1.6-10-4-14-7.8c-4.4-4.3-6.3-9.6-6.6-15.6c-0.4-12.8,6.9-21.6,17.4-26.1
		c7.1-3.1,14.6-4,22.3-3.5c5.8,0.4,11.5,1.5,16.8,3.9c8.8,4,14.4,10.5,16.2,20.1c0.3,1.6,0.4,3.2,0.5,4.9
		C307.9,434.1,307.8,434.5,307.8,435.1z"/>
	<path class="st0" d="M398.2,501.6c-7.1,0-13.9,0-20.8,0c-0.7,0-0.8-0.4-1-0.9c-2.2-6.4-4.3-12.7-6.4-19.1c-0.3-0.9-0.7-1.2-1.7-1.2
		c-11,0-21.9,0-32.9,0c-1,0-1.5,0.3-1.8,1.2c-2.1,6.3-4.4,12.5-6.6,18.8c-0.1,0.4-0.3,0.7-0.5,1.1c-7,0-13.9,0-21,0
		c0.5-1.4,1-2.6,1.5-3.9c11.3-29.8,22.6-59.6,33.9-89.5c0.4-1,0.8-1.3,1.9-1.3c6.3,0,12.6,0,18.8,0c0.8,0,1.2,0.2,1.6,1
		c11.5,30.9,23,61.7,34.6,92.5C397.9,500.7,398,501.1,398.2,501.6z M352.1,430.2c-0.1,0-0.2,0-0.3,0c-4.1,11.5-8.2,23.1-12.3,34.7
		c8.3,0,16.3,0,24.6,0C360,453.2,356.1,441.7,352.1,430.2z"/>
	<path class="st0" d="M135.5,501.5c-6.9,0-13.7,0-20.6,0c0-31.6,0-63,0-94.6c6.9,0,13.7,0,20.6,0
		C135.5,438.4,135.5,469.9,135.5,501.5z"/>
	<path class="st0" d="M168.8,306.1c29.1,0,58.1,0,87.2,0c0,5.1,0,10.2,0,15.5c-0.5,0-1,0-1.4,0c-8.7,0-17.4,0-26,0
		c-0.9,0-1.3,0.3-1.6,1.1c-1.6,4.1-4.5,7-8,9.4c-7.1,4.9-15.1,6.5-23.6,5.6c-3.3-0.3-6.5-1-9.6-2.2c-5.6-2.3-9.8-6.1-12.5-11.5
		C170.1,318.5,169.2,312.4,168.8,306.1z"/>
	<path class="st0" d="M103.7,299.1c-0.3,7.9,0.6,15.5-1.2,23c-2.7,10.9-10.1,16.8-20.8,18.3c-5.3,0.7-10.7,0.7-15.9-0.7
		c-8.7-2.3-12-8.4-11.4-16.7c0.5-6.7,4.2-11.1,10.2-13.7c4.4-1.9,9.1-2.9,13.8-3.6c5.9-1,11.9-2,17.8-3.1
		C98.9,302.2,101.3,301,103.7,299.1z"/>
	<path class="st0" d="M225.2,283.8c-18.8,0-37.6,0-56.4,0c0.1-3.2,0.8-6.2,1.9-9.1c4-10.2,11.5-15.9,22.3-17.2
		c4.8-0.6,9.6-0.4,14.2,1c5.3,1.6,9.4,4.8,12.4,9.4C222.7,272.8,224.2,278.2,225.2,283.8z"/>
</g>
</svg>
